<svg xmlns="http://www.w3.org/2000/svg" width="660" height="90" viewBox="0 -50 660 90"
     fill="none">

   <path stroke="black" stroke-width="2" d="
         M5,0 H580
         M573,-7 l7,7 -7,7

         M100,0 v-30
         M300,0 v-30
         M500,0 v-30

         M90,0 v10
         M290,0 v10
         M490,0 v10

         M130,0 v10
         M330,0 v10
         M530,0 v10
   "/>

   <g fill="black" stroke="none" font-family="sans-serif" font-size="16" text-anchor="middle">
      <text x="100" y="-35">Ping A</text>
      <text x="300" y="-35">Ping B</text>
      <text x="500" y="-35">Ping C</text>

      <text x="620" y="-5">Vessel</text>
      <text x="620" y="15">distance</text>

      <text x="94" y="25">X
         <tspan font-size="12" dy="5">A</tspan>
      </text>
      <text x="294" y="25" fill="red">X
         <tspan font-size="12" dy="5">B</tspan>
      </text>
      <text x="494" y="25" fill="red">X
         <tspan font-size="12" dy="5">C</tspan>
      </text>

      <text x="134" y="25" fill="blue">Y
         <tspan font-size="12" dy="5">A</tspan>
      </text>
      <text x="334" y="25" fill="blue">Y
         <tspan font-size="12" dy="5">B</tspan>
      </text>
      <text x="534" y="25">Y
         <tspan font-size="12" dy="5">C</tspan>
      </text>
   </g>
</svg>
