<svg xmlns="http://www.w3.org/2000/svg" width="280" height="370" viewBox="-100 -120 280 370"
     font-family="sans-serif" font-size="18" text-anchor="middle">
   <defs>
      <marker id="arrow" viewBox="0 0 10 10" refX="5" refY="5" markerWidth="8" markerHeight="8" orient="auto-start-reverse">
         <path d="M0,0 L10,5 0,10 z"/>
      </marker>
   </defs>
   <g fill="none" stroke="black" stroke-width="2">
      <line x1="-100" y1="0" x2="130" y2="0" marker-end="url(#arrow)"/>
      <line x1="0" y1="250" x2="0" y2="-80" marker-end="url(#arrow)"/>
      <circle cx="0" cy="0" r="50"/>
      <circle cx="0" cy="150" r="70"/>
      <circle cx="68" cy="61" r="40"/>
   </g>
   <g fill="none" stroke="black" stroke-width="1">
      <path d="M-30,0 h60 M0,-30 v60" transform="rotate(45)"/>
      <path d="M-30,0 h60 M0,-30 v60" transform="translate(0,150) rotate(45)"/>
      <path d="M-30,0 h60 M0,-30 v60" transform="translate(68,61) rotate(45)"/>
   </g>
   <g fill="white" opacity="0.8" transform="translate(-10,-10)">
      <rect x="0" y="0" width="20" height="20"/>
      <rect x="0" y="150" width="20" height="20"/>
      <rect x="68" y="61" width="20" height="20"/>
   </g>
   <text x="0" y="0" dy="6">38</text>
   <text x="0" y="150" dy="6">18</text>
   <text x="68" y="61" dy="6">70</text>
   <text x="130" y="-20">Athwartship</text>
   <text x="0" y="-100">Alongship</text>
</svg>
